<svg id="Group_10" data-name="Group 10" xmlns="http://www.w3.org/2000/svg" width="80" height="80" viewBox="0 0 80 80">
  <path id="Path_10" data-name="Path 10" d="M131.9,126.664a5.363,5.363,0,0,1,3.014.92,1.179,1.179,0,1,0,1.319-1.953,7.75,7.75,0,1,0-4.333,14.175c4.033,0,6.851-3.187,6.851-7.749a1.178,1.178,0,0,0-1.179-1.179h-3.931a1.179,1.179,0,1,0,0,2.357h2.675c-.43,3.084-2.562,4.214-4.416,4.214a5.392,5.392,0,1,1,0-10.784Zm-14.988,10.784h-.057a2.779,2.779,0,0,1-2.754-2.39,2.841,2.841,0,0,1-.027-.389,1.179,1.179,0,1,0-2.357,0,5.2,5.2,0,0,0,.049.715,5.137,5.137,0,0,0,5.087,4.422h.105a5.152,5.152,0,0,0,5.024-4.864,5.1,5.1,0,0,0-1.4-3.808,5.159,5.159,0,0,0-3.725-1.6,8.837,8.837,0,0,0-1.219.075l.488-2.943h3.863a1.179,1.179,0,1,0,0-2.357H115.12a1.178,1.178,0,0,0-1.163.986l-.963,5.814a1.18,1.18,0,0,0,1.7,1.24c.01-.005.049-.025.112-.053a4.189,4.189,0,0,1,2.043-.406,2.781,2.781,0,0,1,2.776,2.929A2.786,2.786,0,0,1,116.908,137.448Zm27.714,15.84a5.129,5.129,0,0,0-4.982,3.942h-5.831v-6.356l3.371-1.946A1.178,1.178,0,0,0,136,146.887l-10.771,6.219L113.962,146.6a1.179,1.179,0,0,0-1.179,2.041l4.058,2.343v9.074h-5.831a5.121,5.121,0,1,0,0,2.357h7.009a1.179,1.179,0,0,0,1.179-1.178v-8.892l4.948,2.857v7.165a5.121,5.121,0,1,0,2.357,0v-7.274l4.948-2.857v6.173a1.178,1.178,0,0,0,1.179,1.179h7.009a5.12,5.12,0,1,0,4.982-6.3ZM106.029,164a2.764,2.764,0,1,1,2.764-2.764A2.767,2.767,0,0,1,106.029,164Zm22.06,3.348a2.764,2.764,0,1,1-2.764-2.764A2.767,2.767,0,0,1,128.089,167.348Zm16.533-6.176a2.764,2.764,0,1,1,2.764-2.764A2.767,2.767,0,0,1,144.622,161.172ZM160.256,127.2a5.129,5.129,0,0,0-4.982,3.942h-9.688V126.2h5.73a1.178,1.178,0,0,0,1.179-1.179v-5.6a5.121,5.121,0,1,0-2.357,0v4.417h-4.552V121.25a1.179,1.179,0,0,0-.589-1.021l-3.728-2.152a1.178,1.178,0,1,0-1.179,2.041l3.139,1.812v20.784l-3.139,1.812a1.178,1.178,0,0,0,1.179,2.041L145,144.415a1.178,1.178,0,0,0,.589-1.021v-2.589h7.38v4.417a5.121,5.121,0,1,0,2.357,0v-5.6a1.178,1.178,0,0,0-1.179-1.179h-8.559V133.5h9.688a5.12,5.12,0,1,0,4.982-6.3Zm-11.7-12.762a2.764,2.764,0,1,1,2.764,2.764A2.767,2.767,0,0,1,148.553,114.44Zm8.356,35.765a2.764,2.764,0,1,1-2.764-2.764A2.767,2.767,0,0,1,156.909,150.2Zm3.348-15.119a2.764,2.764,0,1,1,2.764-2.764A2.767,2.767,0,0,1,160.256,135.086Z" transform="translate(-85.377 -92.469)" fill="#6928cc"/>
  <path id="Path_11" data-name="Path 11" d="M19.181,58.029a5.128,5.128,0,0,0-3.942-4.982V48.63h4.552v2.589a1.179,1.179,0,0,0,.589,1.021l3.232,1.866a1.178,1.178,0,0,0,1.179-2.041l-2.643-1.526V29.755l18-10.392,10.771,6.219A1.178,1.178,0,1,0,52.1,23.541l-3.371-1.946V12.411h5.831a5.121,5.121,0,1,0,0-2.357h-7.01a1.178,1.178,0,0,0-1.179,1.179v9L41.42,17.377V10.1a5.121,5.121,0,1,0-2.357,0v7.165l-4.948,2.857V14.061a1.179,1.179,0,0,0-1.179-1.179H25.928a5.121,5.121,0,1,0,0,2.357h5.831v6.246L20.38,28.054a1.178,1.178,0,0,0-.589,1.021v2.589h-7.38V27.247a5.121,5.121,0,1,0-2.357,0v5.6a1.179,1.179,0,0,0,1.179,1.179h8.559v4.948H10.1a5.12,5.12,0,1,0,0,2.357h9.688v4.948H14.06a1.179,1.179,0,0,0-1.179,1.179v5.6a5.12,5.12,0,1,0,6.3,4.982ZM59.539,8.468a2.764,2.764,0,1,1-2.764,2.764A2.767,2.767,0,0,1,59.539,8.468ZM20.946,16.824a2.764,2.764,0,1,1,2.764-2.764A2.767,2.767,0,0,1,20.946,16.824Zm16.533-11.7a2.764,2.764,0,1,1,2.764,2.764A2.767,2.767,0,0,1,37.478,5.121ZM8.468,22.265a2.764,2.764,0,1,1,2.764,2.764A2.767,2.767,0,0,1,8.468,22.265ZM5.121,42.91a2.764,2.764,0,1,1,2.764-2.764A2.767,2.767,0,0,1,5.121,42.91Zm8.94,17.882a2.764,2.764,0,1,1,2.764-2.764A2.767,2.767,0,0,1,14.06,60.793Z" fill="#6928cc"/>
</svg>
