<svg xmlns="http://www.w3.org/2000/svg" width="68.167" height="70.233" viewBox="0 0 68.167 70.233">
  <g id="Group_9886" data-name="Group 9886" transform="translate(0.5 0.5)">
    <path id="Path_1545" data-name="Path 1545" d="M18.467,38.133a1.039,1.039,0,0,1-.6-.188C17.305,37.546,4,28.055,4,17.467a14.467,14.467,0,0,1,28.933,0c0,10.589-13.305,20.08-13.871,20.479A1.039,1.039,0,0,1,18.467,38.133Zm0-33.067a12.414,12.414,0,0,0-12.4,12.4c0,8.327,9.851,16.4,12.4,18.346,2.549-1.948,12.4-10.019,12.4-18.346A12.414,12.414,0,0,0,18.467,5.067Z" transform="translate(-4 -3)" fill="#6928cc" stroke="#6928cc" stroke-width="1"/>
    <path id="Path_1546" data-name="Path 1546" d="M18.2,21.625a6.314,6.314,0,1,1,6.2-6.313A6.263,6.263,0,0,1,18.2,21.625Zm0-10.521a4.209,4.209,0,1,0,4.133,4.208A4.176,4.176,0,0,0,18.2,11.1ZM59.533,66.867H25.95a8.944,8.944,0,0,1,0-17.886H45.067a5.261,5.261,0,0,0,0-10.521h-21.7a1.052,1.052,0,0,1,0-2.1h21.7a7.366,7.366,0,0,1,0,14.73H25.95a6.84,6.84,0,0,0,0,13.678H59.533a1.052,1.052,0,0,1,0,2.1Z" transform="translate(-3.733 -2.8)" fill="#6928cc" stroke="#6928cc" stroke-width="1"/>
    <path id="Path_1547" data-name="Path 1547" d="M63.2,69.4a6.2,6.2,0,1,1,6.2-6.2A6.206,6.206,0,0,1,63.2,69.4Zm0-10.333A4.133,4.133,0,1,0,67.333,63.2,4.137,4.137,0,0,0,63.2,59.067Z" transform="translate(-2.233 -0.167)" fill="#6928cc" stroke="#6928cc" stroke-width="1"/>
  </g>
</svg>
