<svg xmlns="http://www.w3.org/2000/svg" width="19.5" height="19.342" viewBox="0 0 19.5 19.342">
  <path id="Path_1543" data-name="Path 1543" d="M21.9,6.9H20.7V5.7a1.421,1.421,0,0,0-.2-.6.735.735,0,0,0-.6-.2,1.421,1.421,0,0,0-.6.2.735.735,0,0,0-.2.6V6.9H17.9a1.421,1.421,0,0,0-.6.2.735.735,0,0,0-.2.6,1.421,1.421,0,0,0,.2.6.735.735,0,0,0,.6.2h1.2V9.7a1.421,1.421,0,0,0,.2.6.735.735,0,0,0,.6.2,1.421,1.421,0,0,0,.6-.2.735.735,0,0,0,.2-.6V8.5h1.2a1.421,1.421,0,0,0,.6-.2.735.735,0,0,0,.2-.6,1.421,1.421,0,0,0-.2-.6A.845.845,0,0,0,21.9,6.9ZM20.3,17.1H7.3a1.421,1.421,0,0,1-.6-.2.735.735,0,0,1-.2-.6,1.421,1.421,0,0,1,.2-.6.735.735,0,0,1,.6-.2H18.7c.2,0,.3,0,.4-.1l.3-.3.7-1.6a.637.637,0,0,0,0-.6,1,1,0,0,0-.4-.5.637.637,0,0,0-.6,0,1,1,0,0,0-.5.4L18.1,14H8.8L7.9,8.1h6.7a1.421,1.421,0,0,0,.6-.2.735.735,0,0,0,.2-.6,1.421,1.421,0,0,0-.2-.6.735.735,0,0,0-.6-.2H7.7L7.3,3.9A.55.55,0,0,0,7,3.4a.44.44,0,0,0-.5-.1H4.1a1.421,1.421,0,0,0-.6.2.6.6,0,0,0-.3.6,1.421,1.421,0,0,0,.2.6.735.735,0,0,0,.6.2H5.7l1.4,8.9a1.974,1.974,0,0,0-1.4.6,2.223,2.223,0,0,0-.8,1.3A2.573,2.573,0,0,0,5,17.2a2.168,2.168,0,0,0,1,1.1,2.976,2.976,0,0,0-.5,1.5,2.792,2.792,0,0,0,.8,2,2.9,2.9,0,0,0,4,0,2.973,2.973,0,0,0,.8-2,2.663,2.663,0,0,0-.3-1.2h3.8a2.663,2.663,0,0,0-.3,1.2,2.792,2.792,0,0,0,.8,2,2.973,2.973,0,0,0,2,.8,2.792,2.792,0,0,0,2-.8,2.973,2.973,0,0,0,.8-2,2.663,2.663,0,0,0-.3-1.2h.3a1.421,1.421,0,0,0,.6-.2.735.735,0,0,0,.2-.6,1.421,1.421,0,0,0-.2-.6C20.7,17.1,20.5,17.1,20.3,17.1ZM9.8,19.9a1.854,1.854,0,0,1-.2.7A2.092,2.092,0,0,1,9,21a1.7,1.7,0,0,1-.7.1,1.141,1.141,0,0,1-.6-.3.864.864,0,0,1-.3-.6,1.7,1.7,0,0,1,.1-.7,1,1,0,0,1,.4-.5,1.445,1.445,0,0,1,.7-.2,1.222,1.222,0,0,1,.9.4A1.143,1.143,0,0,1,9.8,19.9Zm8.9,0a1.854,1.854,0,0,1-.2.7.664.664,0,0,1-.5.4,1.7,1.7,0,0,1-.7.1,1.141,1.141,0,0,1-.6-.3.864.864,0,0,1-.3-.6,1.7,1.7,0,0,1,.1-.7,1,1,0,0,1,.4-.5,1.445,1.445,0,0,1,.7-.2,1.222,1.222,0,0,1,.9.4A1.165,1.165,0,0,1,18.7,19.9Z" transform="translate(-3.2 -3.259)" fill="#fff"/>
</svg>
