<svg id="Group_9899" data-name="Group 9899" xmlns="http://www.w3.org/2000/svg" width="93" height="67.167" viewBox="0 0 93 67.167">
  <path id="Path_1572" data-name="Path 1572" d="M68.267,89.365h3.1V92.48h-3.1ZM148.662,110.2a1.551,1.551,0,0,0,.113-.584V92.48a10.883,10.883,0,0,0-10.838-10.9H88.394v3.115h49.543a7.774,7.774,0,0,1,7.741,7.788v16.831l-2.069,5.154a7.794,7.794,0,0,0,0,5.838l1.979,4.955-5.7,18.623h-3.222L139.462,127a1.561,1.561,0,0,0-.432-1.357l-8.114-8.163a7.861,7.861,0,0,1-2.27-5.517v-2.352h-3.1v2.352a11,11,0,0,0,3.178,7.721l7.549,7.595-2.965,17.9a1.568,1.568,0,0,0,.347,1.263,1.541,1.541,0,0,0,1.181.551h6.193a1.55,1.55,0,0,0,1.48-1.1l6.193-20.249a1.556,1.556,0,0,0-.043-1.039l-2.185-5.47a4.683,4.683,0,0,1,0-3.5l2.183-5.438Z" transform="translate(-55.775 -79.83)" fill="#6928cc"/>
  <path id="Path_1573" data-name="Path 1573" d="M89.9,90.213v3.123a3.1,3.1,0,1,1-6.2,0V91.775a6.229,6.229,0,0,0-6.2-6.246h-4.65v3.123H77.5a3.115,3.115,0,0,1,3.1,3.123v1.561a6.2,6.2,0,1,0,12.4,0V90.213ZM6.091,73.038H1.55A1.556,1.556,0,0,0,0,74.6c0,2.946.445,6.567,3.991,8.488l1.55.734L6.86,80.992,5.385,80.3c-1.352-.732-2.026-1.942-2.221-4.136H6.111a4.413,4.413,0,0,1,3.57,1.6l2.336-2.052a7.753,7.753,0,0,0-5.925-2.675Z" transform="translate(0 -72.852)" fill="#6928cc"/>
  <path id="Path_1574" data-name="Path 1574" d="M42.843,112.713A4.692,4.692,0,0,0,38.2,116.43l-3.869,19.649H30.954V113.818a4.7,4.7,0,0,0-1.043-2.941L18.97,97.309a4.616,4.616,0,0,0-3.6-1.729H6.443A3.376,3.376,0,0,1,3.1,92.214a3.449,3.449,0,0,1,.441-1.689L10.58,77.743a5.725,5.725,0,0,1,5.956-2.494l4.643,1.558a1.545,1.545,0,0,0,1.458-.263,5.964,5.964,0,0,1,6.028-.868l2.713,1.051c-1.294,2.59-2.645,3.133-3.622,3.274H24.763v3.115h3.1c.063,0,.127,0,.192-.009,3.023-.375,5.261-2.562,6.841-6.686a1.577,1.577,0,0,0-.029-1.193A1.552,1.552,0,0,0,34,74.408l-4.2-1.625a9.019,9.019,0,0,0-8.4.818l-4.029-1.346a8.875,8.875,0,0,0-9.443,3.877L.834,89.007A6.593,6.593,0,0,0,0,92.22a6.489,6.489,0,0,0,6.438,6.474h8.927a1.54,1.54,0,0,1,1.2.578l10.945,13.57a1.553,1.553,0,0,1,.348.977v23.817a1.552,1.552,0,0,0,1.548,1.558H35.6a1.549,1.549,0,0,0,1.518-1.256l4.112-20.879a1.545,1.545,0,0,1,1.582-1.231H77.385v-3.115Z" transform="translate(0 -72.028)" fill="#6928cc"/>
</svg>
