<svg xmlns="http://www.w3.org/2000/svg" xmlns:xlink="http://www.w3.org/1999/xlink" width="116" height="62" viewBox="0 0 116 62">
  <defs>
    <clipPath id="clip-path">
      <rect id="Rectangle_87" data-name="Rectangle 87" width="116" height="62" fill="#fff"/>
    </clipPath>
  </defs>
  <g id="Cavli_Wireless" clip-path="url(#clip-path)">
    <g id="Group_30" data-name="Group 30" transform="translate(4.62 11.372)">
      <g id="_Group_2" data-name=" Group 2" transform="translate(0 0)">
        <g id="_Group_3" data-name=" Group 3" transform="translate(66.749 3.639)">
          <path id="Path_442" data-name="Path 442" d="M478.257,468.371a1.74,1.74,0,0,1-1.74,1.74h-11.4V446.2a1.739,1.739,0,0,1,3.474,0v20.423h7.925A1.744,1.744,0,0,1,478.257,468.371Z" transform="translate(-465.119 -444.554)" fill="#fff"/>
        </g>
        <g id="_Group_4" data-name=" Group 4" transform="translate(42.379 3.566)">
          <path id="Path_443" data-name="Path 443" d="M435.889,446.873h0l-.022.063-8.555,21.693a2.776,2.776,0,0,1-.38.581,2.032,2.032,0,0,1-.152.17l-.129.12-.107.085h-.023a2.36,2.36,0,0,1-1.4.447H424.1l-1.247-3.131-7.969-20.115h0a1.735,1.735,0,1,1,3.242-1.239h0l7.289,18.4,7.258-18.335h0l.049-.125h0a1.735,1.735,0,0,1,3.345.635A1.679,1.679,0,0,1,435.889,446.873Z" transform="translate(-414.77 -444.399)" fill="#fff"/>
        </g>
        <g id="_Group_5" data-name=" Group 5" transform="translate(25.899 3.549)">
          <path id="Path_444" data-name="Path 444" d="M401.619,470.03h-2.571a1.734,1.734,0,0,1-1.588-1.037l-.04-.1-1.512-3.819-1.368-3.483-4.709-11.877-1.878,4.731-2.8,7.146h5.634l1.377,3.483h-8.412l-1.149,2.907-1.154-2.907-.724-1.828,7.083-17.5h0a2.169,2.169,0,0,1,4.083.13Z" transform="translate(-380.722 -444.365)" fill="#fff"/>
        </g>
        <g id="_Group_6" data-name=" Group 6">
          <path id="Path_445" data-name="Path 445" d="M354.182,441.081h0a16.237,16.237,0,1,0-1.856,25.785l-1.61-4.069a11.962,11.962,0,1,1,.635-18.5h0a2.144,2.144,0,1,0,2.867-3.189Z" transform="translate(-327.214 -437.03)" fill="#fff"/>
        </g>
      </g>
      <g id="_Group_7" data-name=" Group 7" transform="translate(83.011 3.462)">
        <path id="Path_446" data-name="Path 446" d="M502.194,446.009v22.185a1.739,1.739,0,0,1-3.474,0V446.009h0a1.739,1.739,0,1,1,3.474-.176A1.633,1.633,0,0,1,502.194,446.009Z" transform="translate(-498.717 -444.182)" fill="#fff"/>
      </g>
      <g id="_Group_8" data-name=" Group 8" transform="translate(89.645 6.793)">
        <g id="_Group_9" data-name=" Group 9" transform="translate(13.275 6.789)">
          <path id="Path_447" data-name="Path 447" d="M543.324,466.919v1.955a1.74,1.74,0,0,1-3.475.177c0-.059,0-.118,0-.177v-1.955a1.74,1.74,0,0,1,3.475-.176C543.327,466.8,543.327,466.86,543.324,466.919Z" transform="translate(-539.847 -465.091)" fill="#fff"/>
        </g>
        <g id="_Group_10" data-name=" Group 10" transform="translate(0 0)">
          <path id="Path_448" data-name="Path 448" d="M515.9,452.719v15.857a1.739,1.739,0,0,1-3.474,0V452.719h0a1.739,1.739,0,0,1,3.474,0Z" transform="translate(-512.422 -451.069)" fill="#fff"/>
        </g>
        <g id="_Group_11" data-name=" Group 11" transform="translate(6.643 3.301)">
          <path id="Path_449" data-name="Path 449" d="M529.624,459.713v8.845a1.739,1.739,0,0,1-3.474,0v-8.845h0a1.739,1.739,0,1,1,3.474-.177A1.536,1.536,0,0,1,529.624,459.713Z" transform="translate(-526.147 -457.885)" fill="#fff"/>
        </g>
      </g>
      <g id="_Group_12" data-name=" Group 12" transform="translate(26.334 32.499)">
        <path id="_Compound_Path_" data-name=" Compound Path " d="M386.562,504.94h.447a.246.246,0,0,1,.255.174l1.605,4.226,1.664-4.414a.277.277,0,0,1,.3-.214h.863c.2,0,.282.12.214.308l-2.415,6.207a.322.322,0,0,1-.322.215h-.474a.3.3,0,0,1-.309-.215l-1.592-4.24-1.628,4.24a.3.3,0,0,1-.308.215h-.469a.3.3,0,0,1-.309-.215l-2.433-6.207c-.067-.188,0-.308.215-.308h.894a.277.277,0,0,1,.3.214l1.668,4.414,1.605-4.226A.237.237,0,0,1,386.562,504.94Z" transform="translate(-381.622 -504.451)" fill="#fff"/>
        <path id="_Compound_Path_2" data-name=" Compound Path 2" d="M410.255,511.459H409.5a.277.277,0,0,1-.3-.258.238.238,0,0,1,0-.037v-6.158a.277.277,0,0,1,.258-.3.231.231,0,0,1,.037,0h.755a.268.268,0,0,1,.3.238.279.279,0,0,1,0,.057v6.153a.268.268,0,0,1-.233.3A.24.24,0,0,1,410.255,511.459Z" transform="translate(-395.854 -504.45)" fill="#fff"/>
        <path id="_Compound_Path_3" data-name=" Compound Path 3" d="M422.347,505v.7a.277.277,0,0,1-.258.3.232.232,0,0,1-.037,0H421.6a1.4,1.4,0,0,0-1.506,1.274c0,.039,0,.078,0,.117v3.765a.277.277,0,0,1-.259.3h-.792a.268.268,0,0,1-.3-.239.275.275,0,0,1,0-.057V505a.268.268,0,0,1,.238-.3.289.289,0,0,1,.057,0h.541a.251.251,0,0,1,.269.231.231.231,0,0,1,0,.037v.282a2.263,2.263,0,0,1,1.592-.554h.622a.268.268,0,0,1,.283.252A.259.259,0,0,1,422.347,505Z" transform="translate(-400.777 -504.446)" fill="#fff"/>
        <path id="_Compound_Path_4" data-name=" Compound Path 4" d="M437.605,508.494h-5.143a2.173,2.173,0,0,0,2.132,1.69,2.989,2.989,0,0,0,1.789-.68.259.259,0,0,1,.366-.009.243.243,0,0,1,.04.049l.447.51a.254.254,0,0,1-.027.407,4.025,4.025,0,0,1-2.634,1,3.474,3.474,0,0,1-3.523-3.425v-.045a3.305,3.305,0,0,1,3.321-3.288c.032,0,.064,0,.1,0a3.433,3.433,0,0,1,3.429,3.51.268.268,0,0,1-.253.283.242.242,0,0,1-.042,0Zm-1.176-1.046a2.026,2.026,0,0,0-3.967,0Z" transform="translate(-407.127 -504.445)" fill="#fff"/>
        <path id="_Compound_Path_5" data-name=" Compound Path 5" d="M454.012,510.118v.77a.277.277,0,0,1-.258.295.231.231,0,0,1-.037,0H453.6c-1.391,0-2.173-.662-2.173-2.294V504.47a.268.268,0,0,1,.238-.3.278.278,0,0,1,.057,0h.764a.268.268,0,0,1,.3.239.275.275,0,0,1,0,.057v4.418a.814.814,0,0,0,.689.922.792.792,0,0,0,.148.008h.174C453.932,509.818,454.012,509.939,454.012,510.118Z" transform="translate(-417.636 -504.173)" fill="#fff"/>
        <path id="_Compound_Path_6" data-name=" Compound Path 6" d="M468.332,508.5h-5.125a2.173,2.173,0,0,0,2.132,1.686,2.994,2.994,0,0,0,1.789-.68.259.259,0,0,1,.366-.009.248.248,0,0,1,.04.049l.447.51a.254.254,0,0,1-.027.407,4.022,4.022,0,0,1-2.634.993,3.469,3.469,0,0,1-3.522-3.416v-.05a3.305,3.305,0,0,1,3.323-3.284l.092,0a3.428,3.428,0,0,1,3.429,3.506.263.263,0,0,1-.313.286Zm-1.176-1.046a2.03,2.03,0,0,0-3.967,0Z" transform="translate(-422.994 -504.45)" fill="#fff"/>
        <path id="_Compound_Path_7" data-name=" Compound Path 7" d="M485.511,505.537l-.273.469a.26.26,0,0,1-.394.089,2.275,2.275,0,0,0-1.033-.286c-.5,0-.939.25-.939.652s.51.613,1.15.85c1.046.366,1.959,1.073,1.959,2.142a2.112,2.112,0,0,1-2.263,2,4.262,4.262,0,0,1-1.937-.523.269.269,0,0,1-.115-.394l.273-.577a.251.251,0,0,1,.315-.162.27.27,0,0,1,.065.032,3.4,3.4,0,0,0,1.342.367c.652,0,.939-.393.939-.769s-.407-.693-1.306-1.046c-.653-.259-1.713-.693-1.713-1.856a1.936,1.936,0,0,1,2.169-1.815,3.255,3.255,0,0,1,1.619.447.241.241,0,0,1,.185.287A.238.238,0,0,1,485.511,505.537Z" transform="translate(-433.198 -504.449)" fill="#fff"/>
        <path id="_Compound_Path_8" data-name=" Compound Path 8" d="M500.6,505.53l-.282.469a.273.273,0,0,1-.369.114.243.243,0,0,1-.038-.024,2.409,2.409,0,0,0-1.064-.286c-.514,0-.97.251-.97.653s.528.613,1.191.85c1.082.366,2.026,1.073,2.026,2.146a2.152,2.152,0,0,1-2.334,2,4.514,4.514,0,0,1-2-.523.268.268,0,0,1-.142-.352.3.3,0,0,1,.022-.042l.282-.577a.265.265,0,0,1,.393-.13,3.6,3.6,0,0,0,1.4.367c.675,0,.971-.393.971-.773s-.421-.693-1.342-1.046c-.675-.259-1.788-.693-1.788-1.856,0-1.087.957-1.815,2.236-1.815a3.438,3.438,0,0,1,1.672.447.241.241,0,0,1,.176.293A.244.244,0,0,1,500.6,505.53Z" transform="translate(-440.929 -504.446)" fill="#fff"/>
      </g>
    </g>
  </g>
</svg>
