<svg id="Group_9" data-name="Group 9" xmlns="http://www.w3.org/2000/svg" width="80" height="80" viewBox="0 0 80 80">
  <path id="Path_7" data-name="Path 7" d="M77.5,32.343H72.7a.165.165,0,0,1-.163-.12,33.213,33.213,0,0,0-4.029-9.72.164.164,0,0,1,.019-.2l3.4-3.4a2.5,2.5,0,0,0,0-3.535L64.637,8.069a2.5,2.5,0,0,0-3.535,0l-3.4,3.4a.164.164,0,0,1-.2.019,33.212,33.212,0,0,0-9.72-4.029.165.165,0,0,1-.12-.163V2.5a2.5,2.5,0,0,0-2.5-2.5H34.843a2.5,2.5,0,0,0-2.5,2.5V7.3a.165.165,0,0,1-.12.163,33.216,33.216,0,0,0-9.72,4.029.163.163,0,0,1-.2-.019l-3.4-3.4a2.5,2.5,0,0,0-3.535,0L8.069,15.362a2.5,2.5,0,0,0,0,3.535l3.4,3.4a.164.164,0,0,1,.019.2,33.212,33.212,0,0,0-4.029,9.72.165.165,0,0,1-.163.12H2.5a2.5,2.5,0,0,0-2.5,2.5V45.157a2.5,2.5,0,0,0,2.5,2.5H7.3a.165.165,0,0,1,.163.12,33.212,33.212,0,0,0,4.029,9.72.164.164,0,0,1-.019.2l-3.4,3.4a2.5,2.5,0,0,0,0,3.535l7.293,7.293a2.5,2.5,0,0,0,3.535,0l3.4-3.4a.163.163,0,0,1,.2-.019,33.216,33.216,0,0,0,9.72,4.029.165.165,0,0,1,.12.163v4.8a2.5,2.5,0,0,0,2.5,2.5H45.157a2.5,2.5,0,0,0,2.5-2.5V72.7a.165.165,0,0,1,.12-.163,33.219,33.219,0,0,0,9.72-4.029.163.163,0,0,1,.2.019l3.4,3.4a2.5,2.5,0,0,0,3.535,0l1.72-1.72A1.169,1.169,0,1,0,64.7,68.557l-1.721,1.72a.161.161,0,0,1-.228,0l-3.4-3.4a2.5,2.5,0,0,0-3.082-.358,30.881,30.881,0,0,1-9.036,3.747A2.493,2.493,0,0,0,45.318,72.7v4.8a.161.161,0,0,1-.161.161H34.843a.161.161,0,0,1-.161-.161V72.7a2.493,2.493,0,0,0-1.917-2.438,30.879,30.879,0,0,1-9.037-3.747,2.5,2.5,0,0,0-3.082.358l-3.4,3.4a.161.161,0,0,1-.228,0L9.723,62.984a.161.161,0,0,1,0-.228l3.4-3.4a2.5,2.5,0,0,0,.358-3.082,30.874,30.874,0,0,1-3.746-9.037A2.494,2.494,0,0,0,7.3,45.318H2.5a.161.161,0,0,1-.161-.161V34.843a.161.161,0,0,1,.161-.161H7.3a2.493,2.493,0,0,0,2.438-1.917,30.874,30.874,0,0,1,3.746-9.037,2.5,2.5,0,0,0-.358-3.082l-3.4-3.4a.161.161,0,0,1,0-.228l7.293-7.293a.161.161,0,0,1,.228,0l3.4,3.4a2.5,2.5,0,0,0,3.082.358,30.874,30.874,0,0,1,9.037-3.746A2.494,2.494,0,0,0,34.682,7.3V2.5a.161.161,0,0,1,.161-.161H45.157a.161.161,0,0,1,.161.161V7.3a2.494,2.494,0,0,0,1.917,2.438,30.874,30.874,0,0,1,9.037,3.746,2.5,2.5,0,0,0,3.082-.358l3.4-3.4a.161.161,0,0,1,.228,0l7.293,7.293a.161.161,0,0,1,0,.228l-3.4,3.4a2.5,2.5,0,0,0-.358,3.082,30.874,30.874,0,0,1,3.746,9.037A2.494,2.494,0,0,0,72.7,34.682h4.8a.161.161,0,0,1,.161.161V45.157a.161.161,0,0,1-.161.161H72.7a2.494,2.494,0,0,0-2.438,1.917,30.874,30.874,0,0,1-3.746,9.037,2.5,2.5,0,0,0,.358,3.082l3.4,3.4a.161.161,0,0,1,0,.228l-1.74,1.74a1.169,1.169,0,0,0,1.654,1.654l1.74-1.74a2.5,2.5,0,0,0,0-3.535l-3.4-3.4a.164.164,0,0,1-.019-.2,33.212,33.212,0,0,0,4.029-9.72.165.165,0,0,1,.163-.12h4.8a2.5,2.5,0,0,0,2.5-2.5V34.843A2.5,2.5,0,0,0,77.5,32.343Z" fill="#6928cc"/>
  <path id="Path_8" data-name="Path 8" d="M97.109,115.747a1.159,1.159,0,0,0-1.317.978,24.869,24.869,0,1,0,24.6-21.2A24.875,24.875,0,0,0,97.277,111.2l-.047.119a1.16,1.16,0,0,0,2.157.851l.046-.116a22.562,22.562,0,1,1-1.59,8.333,22.839,22.839,0,0,1,.244-3.327A1.159,1.159,0,0,0,97.109,115.747Z" transform="translate(-80.392 -80.392)" fill="#6928cc"/>
  <path id="Path_9" data-name="Path 9" d="M172.81,202.938l.146,0a5.145,5.145,0,0,0,3.612-1.643l13.28-14.384a5.115,5.115,0,1,0-7.516-6.94l-9.73,10.538-2.781-2.688a5.115,5.115,0,0,0-7.11,7.356l6.545,6.325a5.09,5.09,0,0,0,3.555,1.437Zm-8.518-13.348a2.748,2.748,0,0,1,3.881-.066l3.653,3.531a1.185,1.185,0,0,0,1.695-.048l10.553-11.43a2.744,2.744,0,1,1,4.032,3.723l-13.28,14.384a2.744,2.744,0,0,1-3.923.112l-6.544-6.325A2.748,2.748,0,0,1,164.292,189.59Z" transform="translate(-136.178 -150.631)" fill="#6928cc"/>
</svg>
