<svg id="Group_9898" data-name="Group 9898" xmlns="http://www.w3.org/2000/svg" width="55.8" height="67.167" viewBox="0 0 55.8 67.167">
  <path id="Path_1569" data-name="Path 1569" d="M135.555,48H113.122A1.122,1.122,0,0,0,112,49.122v13.46a1.122,1.122,0,0,0,1.122,1.122h22.434a1.122,1.122,0,0,0,1.122-1.122V49.122A1.122,1.122,0,0,0,135.555,48Zm-1.122,13.46h-20.19V50.243h20.19Z" transform="translate(-101.996 -41.27)" fill="#fff"/>
  <path id="Path_1570" data-name="Path 1570" d="M150.577,112h2.243v2.235h-2.243Zm-4.487,0h2.243v2.235h-2.243Zm-4.487,0h2.243v2.235H141.6Zm11.217,22.35h-4.163l5.151-9.528a1.12,1.12,0,0,0-1.64-1.439l-15.7,11.175a1.117,1.117,0,0,0,.652,2.027h4.163l-5.151,9.528a1.12,1.12,0,0,0,1.64,1.439l15.7-11.175a1.117,1.117,0,0,0-.652-2.027Zm-12.427,8.588L144.146,136a1.118,1.118,0,0,0-.988-1.647h-2.541L149.544,128l-3.752,6.941a1.118,1.118,0,0,0,.988,1.647h2.541Z" transform="translate(-122.636 -96.297)" fill="#fff"/>
  <path id="Path_1571" data-name="Path 1571" d="M94.684,5.6H93.568V1.119a1.116,1.116,0,1,0-2.232,0V5.6H89.1V1.119a1.116,1.116,0,1,0-2.232,0V5.6H85.756A1.118,1.118,0,0,0,84.64,6.717v6.717A5.6,5.6,0,0,0,89.1,18.919V51.494a1.674,1.674,0,1,1-3.348,0V26.473a3.926,3.926,0,0,0-2.4-3.616l-3.176-1.235V5.6A5.6,5.6,0,0,0,74.6,0H50.044a5.6,5.6,0,0,0-5.58,5.6V58.211H41.116A1.118,1.118,0,0,0,40,59.331v6.717a1.118,1.118,0,0,0,1.116,1.119H83.524a1.118,1.118,0,0,0,1.116-1.119V59.331a1.118,1.118,0,0,0-1.116-1.119H80.176V24.023l2.334.907a1.679,1.679,0,0,1,1.014,1.543V51.494a3.906,3.906,0,1,0,7.812,0V18.919A5.6,5.6,0,0,0,95.8,13.433V6.717A1.118,1.118,0,0,0,94.684,5.6ZM46.7,5.6a3.353,3.353,0,0,1,3.348-3.358H74.6A3.353,3.353,0,0,1,77.944,5.6V58.211H46.7ZM82.408,60.45v4.478H42.232V60.45Zm11.16-47.017a3.348,3.348,0,1,1-6.7,0v-5.6h6.7Z" transform="translate(-40)" fill="#fff"/>
</svg>
