<svg xmlns="http://www.w3.org/2000/svg" width="86" height="86" viewBox="0 0 86 86">
  <g id="Group_9933" data-name="Group 9933" transform="translate(-0.983 -0.905)">
    <path id="Layer_3" data-name="Layer 3" d="M86.561,37.954a42.984,42.984,0,1,0-48.284,48.58,44.808,44.808,0,0,0,5.776.371,42.627,42.627,0,0,0,22.1-6.13A2.86,2.86,0,1,0,63.2,75.886,37.124,37.124,0,1,1,78.839,57.229,6.159,6.159,0,0,1,66.927,55.06V24.037a2.865,2.865,0,0,0-5.73,0v4.932a22.875,22.875,0,1,0,.573,29.505,11.856,11.856,0,0,0,22.433.783,43.332,43.332,0,0,0,2.358-21.3ZM44.007,61.186A17.146,17.146,0,1,1,61.2,44.041,17.168,17.168,0,0,1,44.007,61.186Z" transform="translate(0 0)" fill="#fff"/>
  </g>
</svg>
