<svg id="Group_9897" data-name="Group 9897" xmlns="http://www.w3.org/2000/svg" width="75.433" height="67.167" viewBox="0 0 75.433 67.167">
  <path id="Path_1567" data-name="Path 1567" d="M70.835,26.509H56.62a1.1,1.1,0,1,0,0,2.2H70.835a2.383,2.383,0,0,1,2.389,2.373v41.7H2.21v-41.7A2.383,2.383,0,0,1,4.6,28.7H51.463a1.1,1.1,0,1,0,0-2.2H4.6A4.588,4.588,0,0,0,0,31.077V76.26a4.588,4.588,0,0,0,4.6,4.568H15.177a1.1,1.1,0,1,0,0-2.2H4.6A2.383,2.383,0,0,1,2.21,76.26V74.974H73.224V76.26a2.383,2.383,0,0,1-2.389,2.373H20.285a1.1,1.1,0,1,0,0,2.2H27.24L26.149,87.09H24.132a3.293,3.293,0,1,0,0,6.585H51.3a3.293,3.293,0,1,0,0-6.585H49.285l-1.091-6.263H70.835a4.588,4.588,0,0,0,4.6-4.568V31.077a4.588,4.588,0,0,0-4.6-4.568ZM47.042,87.09H44.034a1.1,1.1,0,1,0,0,2.2H51.3a1.1,1.1,0,1,1,0,2.2H24.132a1.1,1.1,0,1,1,0-2.2H38.875a1.1,1.1,0,1,0,0-2.2H28.392l1.091-6.263H45.951Z" transform="translate(0 -26.509)" fill="#6928cc"/>
  <path id="Path_1568" data-name="Path 1568" d="M97.558,100.474a1.1,1.1,0,0,0-.984.608L91.367,111.4l-4.394-8.706a1.1,1.1,0,0,0-1.967,0l-2.382,4.719h-3.8a1.112,1.112,0,0,0,0,2.225H83.3a1.1,1.1,0,0,0,.984-.608l1.706-3.379,4.394,8.706a1.1,1.1,0,0,0,1.967,0l5.207-10.317,2.518,4.989a1.1,1.1,0,0,0,.984.608h4.48a1.112,1.112,0,0,0,0-2.224h-3.8l-3.2-6.33A1.1,1.1,0,0,0,97.558,100.474ZM78.821,97.179h5.726a1.108,1.108,0,0,0,1.1-1.112V84.358a1.108,1.108,0,0,0-1.1-1.112H78.821a1.108,1.108,0,0,0-1.1,1.112V96.067A1.108,1.108,0,0,0,78.821,97.179Zm1.1-11.709h3.519v9.484H79.924Zm15.158.957H89.356a1.108,1.108,0,0,0-1.1,1.112v8.527a1.108,1.108,0,0,0,1.1,1.112h5.726a1.108,1.108,0,0,0,1.1-1.112V87.54A1.108,1.108,0,0,0,95.082,86.427Zm-1.1,8.527H90.46v-6.3h3.519Zm11.561,2.225a1.108,1.108,0,0,0,1.1-1.112V81.422a1.108,1.108,0,0,0-1.1-1.112H99.814a1.108,1.108,0,0,0-1.1,1.112V96.067a1.108,1.108,0,0,0,1.1,1.112Zm-4.623-14.645h3.519v12.42h-3.519Zm-30.4,10.358H45.5a1.112,1.112,0,0,0,0,2.225H70.513a1.112,1.112,0,0,0,0-2.225ZM45.5,101.025h4.476a1.112,1.112,0,0,0,0-2.225H45.5a1.112,1.112,0,0,0,0,2.225ZM70.513,98.8H55.033a1.112,1.112,0,0,0,0,2.225h15.48a1.112,1.112,0,0,0,0-2.225Zm0-18.491H45.5a1.112,1.112,0,0,0,0,2.225H70.513a1.112,1.112,0,0,0,0-2.225ZM45.5,88.443h15.51a1.112,1.112,0,0,0,0-2.225H45.5a1.112,1.112,0,0,0,0,2.225Zm25.012-2.225H66.068a1.112,1.112,0,0,0,0,2.225h4.445a1.112,1.112,0,0,0,0-2.225Zm1.1,19.531a1.108,1.108,0,0,0-1.1-1.112H45.5a1.112,1.112,0,0,0,0,2.225H70.513a1.108,1.108,0,0,0,1.1-1.112ZM45.5,110.515a1.112,1.112,0,0,0,0,2.225h11.77a1.112,1.112,0,0,0,0-2.225Z" transform="translate(-37.814 -72.331)" fill="#6928cc"/>
</svg>
