<svg xmlns="http://www.w3.org/2000/svg" width="80" height="80" viewBox="0 0 80 80">
  <g id="Group_9914" data-name="Group 9914" transform="translate(-0.912)">
    <path id="Path_1582" data-name="Path 1582" d="M17.123,53.179A85.147,85.147,0,0,0,45.461,75.292c4.143,1.956,9.684,4.277,15.858,4.675.383.017.749.033,1.132.033a13.155,13.155,0,0,0,10.184-4.36.362.362,0,0,0,.067-.083,42.784,42.784,0,0,1,3.211-3.315c.782-.746,1.581-1.525,2.346-2.321C81.8,66.241,81.8,61.567,78.224,58l-10-9.963a8.108,8.108,0,0,0-5.857-2.685,8.381,8.381,0,0,0-5.924,2.669l-5.957,5.935c-.549-.315-1.115-.6-1.647-.862a20.6,20.6,0,0,1-1.83-.995A62.961,62.961,0,0,1,31.949,38.442a36.147,36.147,0,0,1-5.092-8.09c1.564-1.409,3.028-2.884,4.443-4.327.5-.514,1.015-1.028,1.531-1.542a8.484,8.484,0,0,0,2.762-5.968,8.417,8.417,0,0,0-2.762-5.968l-4.959-4.94c-.582-.58-1.132-1.144-1.7-1.724C25.077,4.758,23.929,3.6,22.8,2.553A8.31,8.31,0,0,0,16.94,0a8.556,8.556,0,0,0-5.924,2.569l-6.223,6.2a12.718,12.718,0,0,0-3.81,8.156C.667,20.887,1.4,25.1,3.3,30.186c2.912,7.874,7.3,15.184,13.828,22.992ZM5.043,17.273a8.754,8.754,0,0,1,2.646-5.636l6.19-6.167A4.489,4.489,0,0,1,16.94,4.061a4.258,4.258,0,0,1,3,1.442C21.05,6.531,22.1,7.609,23.23,8.753c.566.58,1.148,1.16,1.731,1.757l4.959,4.94a4.5,4.5,0,0,1,1.564,3.1,4.5,4.5,0,0,1-1.564,3.1c-.516.514-1.032,1.044-1.547,1.558-1.547,1.558-3,3.034-4.593,4.443l-.083.083a3.232,3.232,0,0,0-.832,3.68c.017.05.033.083.05.133a38.987,38.987,0,0,0,5.841,9.465A66.451,66.451,0,0,0,44.8,55.566a23.846,23.846,0,0,0,2.2,1.194,20.6,20.6,0,0,1,1.83.995c.067.033.116.066.183.1a3.489,3.489,0,0,0,1.614.414A3.534,3.534,0,0,0,53.1,57.14l6.223-6.2a4.41,4.41,0,0,1,3.045-1.475,4.184,4.184,0,0,1,2.945,1.475L75.346,60.92c2,1.989,1.98,4.144-.05,6.249-.7.746-1.431,1.459-2.213,2.2a47.819,47.819,0,0,0-3.478,3.6,9.152,9.152,0,0,1-7.138,3.017c-.283,0-.582-.017-.865-.033-5.458-.348-10.533-2.47-14.343-4.277A80.89,80.89,0,0,1,20.285,50.626C14.078,43.183,9.9,36.254,7.139,28.827c-1.714-4.559-2.363-8.222-2.1-11.554Z" fill="#fff"/>
  </g>
</svg>
