<svg id="Group_9896" data-name="Group 9896" xmlns="http://www.w3.org/2000/svg" width="44.433" height="67.167" viewBox="0 0 44.433 67.167">
  <path id="Path_1565" data-name="Path 1565" d="M68.287,18.608l-5.533-1.977V8.37a3.81,3.81,0,0,0-3.8-3.813H28.306a3.81,3.81,0,0,0-3.8,3.813v27.4L26.084,68.1a3.8,3.8,0,0,0,3.793,3.628H57.383A3.8,3.8,0,0,0,61.176,68.1l.411-8.435,5.672-2a.989.989,0,0,0,.657-.885l1.026-21.052V19.54a.988.988,0,0,0-.655-.932ZM54.8,6.534,53.012,10.45H34.251L32.464,6.534ZM59.209,68a1.83,1.83,0,0,1-1.826,1.746H29.88A1.829,1.829,0,0,1,28.054,68L26.479,35.725V8.37a1.835,1.835,0,0,1,1.828-1.836H30.3l2.426,5.317a.984.984,0,0,0,.9.576H53.645a.985.985,0,0,0,.9-.576l2.424-5.317h1.992A1.835,1.835,0,0,1,60.784,8.37v27.3Zm6.773-11.989L61.69,57.528,62.753,35.72V18.732l4.219,1.506V35.673Z" transform="translate(-24.509 -4.557)" fill="#fff"/>
  <path id="Path_1566" data-name="Path 1566" d="M60.806,25.419H35.166a.993.993,0,0,0-.994.994v15.3a.993.993,0,0,0,.994.994H60.806a.993.993,0,0,0,.994-.994v-15.3a.993.993,0,0,0-.994-.994Zm-.994,15.3H36.159V27.406H59.813Zm-9.079,6.366h-5.5a.993.993,0,0,0-.994.994v5.494a.993.993,0,0,0,.994.994h5.5a.993.993,0,0,0,.994-.994V48.079a.993.993,0,0,0-.994-.994ZM49.74,52.58H46.232V49.072H49.74Zm11.066-5.495h-5.5a.994.994,0,0,0-.994.994v5.494a.994.994,0,0,0,.994.994h5.495a.993.993,0,0,0,.994-.994V48.079a.993.993,0,0,0-.994-.994Zm-.994,5.495H56.305V49.072h3.507ZM40.661,47.085h-5.5a.993.993,0,0,0-.994.994v5.494a.993.993,0,0,0,.994.994h5.5a.994.994,0,0,0,.993-.994V48.079A.994.994,0,0,0,40.661,47.085Zm-.994,5.495H36.159V49.072h3.507Zm11.066,4.578h-5.5a.993.993,0,0,0-.994.994v5.495a.993.993,0,0,0,.994.994h5.5a.993.993,0,0,0,.994-.994V58.152a.993.993,0,0,0-.994-.994Zm-.994,5.495H46.232V59.145H49.74Zm11.066-5.495h-5.5a.994.994,0,0,0-.994.994v5.495a.994.994,0,0,0,.994.994h5.495a.993.993,0,0,0,.994-.994V58.152A.993.993,0,0,0,60.806,57.158Zm-.994,5.495H56.305V59.145h3.507ZM40.661,57.158h-5.5a.993.993,0,0,0-.994.994v5.495a.993.993,0,0,0,.994.994h5.5a.994.994,0,0,0,.994-.994V58.152A.994.994,0,0,0,40.661,57.158Zm-.994,5.495H36.159V59.145h3.507Zm11.066,4.578h-5.5a.993.993,0,0,0-.994.994v5.494a.993.993,0,0,0,.994.994h5.5a.993.993,0,0,0,.994-.994V68.225a.993.993,0,0,0-.994-.994Zm-.994,5.494H46.232V69.219H49.74Zm11.066-5.494h-5.5a.994.994,0,0,0-.994.994v5.494a.994.994,0,0,0,.994.994h5.495a.993.993,0,0,0,.994-.994V68.225A.993.993,0,0,0,60.806,67.231Zm-.994,5.494H56.305V69.219h3.507ZM40.661,67.231h-5.5a.993.993,0,0,0-.994.994v5.494a.993.993,0,0,0,.994.994h5.5a.994.994,0,0,0,.994-.994V68.225a.994.994,0,0,0-.994-.994Zm-.994,5.494H36.159V69.219h3.507Z" transform="translate(-28.685 -13.913)" fill="#fff"/>
</svg>
