<svg xmlns="http://www.w3.org/2000/svg" width="69.167" height="69.167" viewBox="0 0 69.167 69.167">
  <g id="Group_9891" data-name="Group 9891" transform="translate(1 1)">
    <path id="Path_1560" data-name="Path 1560" d="M90.285,23.469V11.631A4.132,4.132,0,0,0,86.153,7.5H72.937a4.132,4.132,0,0,0-4.132,4.131V13.2m4.475,4.777v1.892a1.83,1.83,0,0,1-1.829,1.829H66.159a1.83,1.83,0,0,1-1.829-1.829V17.973" transform="translate(-56.634 -7.5)" fill="none" stroke="#fff" stroke-linecap="round" stroke-linejoin="round" stroke-miterlimit="10" stroke-width="2"/>
    <path id="Path_1561" data-name="Path 1561" d="M55,17.973h4.159a.944.944,0,0,0,.941-.945A3.827,3.827,0,0,0,56.276,13.2H50.123A3.828,3.828,0,0,0,46.3,17.028a.945.945,0,0,0,.943.945H50.27M96.053,13.2V11.631A4.126,4.126,0,0,0,91.931,7.5H78.748a4.126,4.126,0,0,0-4.121,4.131V23.469m25.891-5.5v1.892a1.827,1.827,0,0,1-1.825,1.829H93.413a1.827,1.827,0,0,1-1.825-1.829V17.973" transform="translate(-41.046 -7.5)" fill="none" stroke="#fff" stroke-linecap="round" stroke-linejoin="round" stroke-miterlimit="10" stroke-width="2"/>
    <path id="Path_1562" data-name="Path 1562" d="M252.322,54.327h11.944a.943.943,0,0,0,.944-.942h0a3.828,3.828,0,0,0-3.832-3.823h-6.168a3.828,3.828,0,0,0-3.832,3.823h0A.943.943,0,0,0,252.322,54.327ZM239.82,81.5V60.892a1.082,1.082,0,0,0-1.083-1.081h-3.843a1.082,1.082,0,0,0-1.083,1.081V81.5m7.739,25.074V95.059" transform="translate(-203.299 -43.866)" fill="none" stroke="#fff" stroke-linecap="round" stroke-linejoin="round" stroke-miterlimit="10" stroke-width="2"/>
    <path id="Path_1563" data-name="Path 1563" d="M36.359,310.816v-23.01a2.165,2.165,0,0,1,2.162-2.167h5.125a2.165,2.165,0,0,1,2.162,2.167v6.73M7.5,315.277H74.667" transform="translate(-7.5 -248.11)" fill="none" stroke="#fff" stroke-linecap="round" stroke-linejoin="round" stroke-miterlimit="10" stroke-width="2"/>
    <path id="Path_1564" data-name="Path 1564" d="M73,181.657h3.029a.811.811,0,0,0,.811-.812V168.466a.811.811,0,0,0-.811-.812H73m-4.371,23.622v-2.293a2.164,2.164,0,0,1,2.161-2.167H84.655a2.164,2.164,0,0,1,2.161,2.167v2.293M56.295,142.217V145.6m-4.728-3.385-1.689,2.932m11.145-2.932,1.689,2.932m36.439-2.932V145.6m-4.728-3.385-1.689,2.932m11.145-2.932,1.689,2.932" transform="translate(-44.139 -124.109)" fill="none" stroke="#fff" stroke-linecap="round" stroke-linejoin="round" stroke-miterlimit="10" stroke-width="2"/>
  </g>
</svg>
