<svg xmlns="http://www.w3.org/2000/svg" width="49.533" height="69.167" viewBox="0 0 49.533 69.167">
  <g id="Group_9900" data-name="Group 9900" transform="translate(1 1)">
    <path id="Path_1575" data-name="Path 1575" d="M227.638,7.5V9.918a2.378,2.378,0,0,0,2.378,2.378h2.943a2.378,2.378,0,0,0,2.378-2.378V7.5Zm16.907,0h3.526a3.91,3.91,0,0,1,3.91,3.91v6.829" transform="translate(-207.698 -7.5)" fill="none" stroke="#6928cc" stroke-linecap="round" stroke-linejoin="round" stroke-miterlimit="10" stroke-width="2"/>
    <path id="Path_1576" data-name="Path 1576" d="M84.3,18.194v-6.8A3.9,3.9,0,0,1,88.217,7.5h24.915m12.2,45.931V70.773a3.9,3.9,0,0,1-3.914,3.894h-33.2A3.9,3.9,0,0,1,84.3,70.773V53.431m41.026,16.46H84.3m22.89-16.46h18.924a2.459,2.459,0,0,0,2.465-2.452V20.646a2.459,2.459,0,0,0-2.465-2.452h-42.6a2.459,2.459,0,0,0-2.465,2.452V50.979a2.459,2.459,0,0,0,2.465,2.452h18.924m18.384-12.252V24.488M88.81,32.414V24.488" transform="translate(-81.05 -7.5)" fill="none" stroke="#6928cc" stroke-linecap="round" stroke-linejoin="round" stroke-miterlimit="10" stroke-width="2"/>
    <path id="Path_1577" data-name="Path 1577" d="M127.97,230.9v7.587a1.9,1.9,0,1,1-3.8,0V230.9" transform="translate(-118.318 -200.73)" fill="none" stroke="#6928cc" stroke-linecap="round" stroke-linejoin="round" stroke-miterlimit="10" stroke-width="2"/>
    <path id="Path_1578" data-name="Path 1578" d="M122.111,144.15a2.992,2.992,0,1,1-2.992-2.991A2.992,2.992,0,0,1,122.111,144.15Zm7.669,1.261V133.2m1.9,17.515v3.332a1.9,1.9,0,1,1-3.8,0v-3.332" transform="translate(-111.367 -116.248)" fill="none" stroke="#6928cc" stroke-linecap="round" stroke-linejoin="round" stroke-miterlimit="10" stroke-width="2"/>
    <circle id="Ellipse_38" data-name="Ellipse 38" cx="2.992" cy="2.992" r="2.992" transform="translate(15.439 29.136)" fill="none" stroke="#6928cc" stroke-linecap="round" stroke-linejoin="round" stroke-miterlimit="10" stroke-width="2"/>
    <path id="Path_1579" data-name="Path 1579" d="M283.18,136.644V133.2m1.9,8.747v12.1a1.9,1.9,0,1,1-3.8,0v-12.1" transform="translate(-254.077 -116.249)" fill="none" stroke="#6928cc" stroke-linecap="round" stroke-linejoin="round" stroke-miterlimit="10" stroke-width="2"/>
    <path id="Path_1580" data-name="Path 1580" d="M219.34,139.636a2.992,2.992,0,1,1-2.991-2.992A2.992,2.992,0,0,1,219.34,139.636Zm7.669,10.327V133.2M230,152.955a2.992,2.992,0,1,1-2.991-2.992A2.992,2.992,0,0,1,230,152.955Zm-26.047,17.117h1.134m5.363,0h1.134m5.363,0h1.134" transform="translate(-187.228 -116.299)" fill="none" stroke="#6928cc" stroke-linecap="round" stroke-linejoin="round" stroke-miterlimit="10" stroke-width="2"/>
  </g>
</svg>
