<svg xmlns="http://www.w3.org/2000/svg" width="106.006" height="80.8" viewBox="0 0 106.006 80.8">
  <g id="Group_8" data-name="Group 8" transform="translate(-6.5 -12.5)">
    <path id="Path_4" data-name="Path 4" d="M54.422,54.7H21.852a2.122,2.122,0,0,1,0-4.243h32.57a2.122,2.122,0,1,1,0,4.243Zm0-25.46H21.852a2.122,2.122,0,1,1,0-4.243h32.57a2.122,2.122,0,1,1,0,4.243Zm-2.866,12.73H9.122a2.122,2.122,0,1,1,0-4.243H51.555a2.122,2.122,0,1,1,0,4.243Zm21.217,6.157c-4.216,0-8.487-2.843-8.487-8.279s4.271-8.279,8.487-8.279,8.487,2.843,8.487,8.279S76.988,48.131,72.772,48.131Zm0-12.314c-1.958,0-4.243,1.057-4.243,4.035s2.285,4.035,4.243,4.035,4.243-1.057,4.243-4.035S74.73,35.816,72.772,35.816Z" transform="translate(0 13.048)" fill="#6928cc" stroke="#f9f2fc" stroke-width="1"/>
    <path id="Path_5" data-name="Path 5" d="M63.209,50.546a2.1,2.1,0,0,1-1.48-3.585l11.841-11.88a2.1,2.1,0,0,1,2.96,2.969L64.689,49.931a2.083,2.083,0,0,1-1.48.615ZM51.371,62.426a2.1,2.1,0,0,1-1.48-3.585l2.96-2.972a2.1,2.1,0,0,1,2.96,2.969L52.85,61.81a2.083,2.083,0,0,1-1.48.615ZM58.77,92.8a2.1,2.1,0,0,1-2.093-2.1V84.4a2.093,2.093,0,1,1,4.186,0v6.3A2.1,2.1,0,0,1,58.77,92.8ZM85.412,81.729a2.083,2.083,0,0,1-1.48-.615l-4.44-4.456a2.1,2.1,0,0,1,2.96-2.969l4.44,4.456a2.1,2.1,0,0,1-1.48,3.585Zm-4.442-49a2.1,2.1,0,0,1-1.48-3.585l4.44-4.456a2.1,2.1,0,1,1,2.96,2.969l-4.44,4.456a2.083,2.083,0,0,1-1.48.615ZM58.77,23.5a2.1,2.1,0,0,1-2.093-2.1V15.1a2.093,2.093,0,1,1,4.186,0v6.3A2.1,2.1,0,0,1,58.77,23.5ZM96.447,55H90.167a2.1,2.1,0,0,1,0-4.2h6.279a2.1,2.1,0,0,1,0,4.2ZM43.676,29.8H21.093a2.1,2.1,0,0,1,0-4.2H43.676a2.1,2.1,0,0,1,0,4.2Zm0,50.4H21.093a2.1,2.1,0,0,1,0-4.2H43.676a2.1,2.1,0,0,1,0,4.2Z" transform="translate(13.46 0)" fill="#6928cc" stroke="#f9f2fc" stroke-width="1"/>
    <path id="Path_6" data-name="Path 6" d="M48.24,92.732A40.274,40.274,0,0,1,29.9,88.339a2.09,2.09,0,0,1-.914-2.829,2.132,2.132,0,0,1,2.858-.905,36.432,36.432,0,0,0,47.2-12.946A35.63,35.63,0,0,0,69.66,24.046a36.718,36.718,0,0,0-37.813-2.908,2.132,2.132,0,0,1-2.858-.905A2.09,2.09,0,0,1,29.9,17.4,41.017,41.017,0,0,1,72.16,20.65,39.82,39.82,0,0,1,82.653,73.864,40.531,40.531,0,0,1,48.24,92.732Z" transform="translate(23.317 0.028)" fill="#6928cc" stroke="#f9f2fc" stroke-width="1"/>
  </g>
</svg>
