<svg xmlns="http://www.w3.org/2000/svg" width="80" height="80" viewBox="0 0 80 80">
  <g id="Group_3" data-name="Group 3" transform="translate(-2 -1)">
    <path id="Path_1" data-name="Path 1" d="M81.759,49.67a3.134,3.134,0,0,0-2.9-1.935l-9.592,0V4.761A3.771,3.771,0,0,0,65.49,1H38.065a3.771,3.771,0,0,0-3.772,3.761V15.392a26.248,26.248,0,1,0,1.322,50.792l13.94,13.9a3.15,3.15,0,0,0,4.446,0l27.077-27a3.118,3.118,0,0,0,.681-3.416ZM4.515,40.959A23.812,23.812,0,1,1,28.327,64.7,23.8,23.8,0,0,1,4.515,40.959ZM79.3,51.313l-27.077,27a.63.63,0,0,1-.889,0L38.253,65.268a26.22,26.22,0,0,0-1.445-49.159V4.761a1.257,1.257,0,0,1,1.257-1.254H65.49a1.257,1.257,0,0,1,1.257,1.254V47.736a2.514,2.514,0,0,0,2.515,2.507h9.592a.627.627,0,0,1,.444,1.07Z" transform="translate(0)" fill="#6928cc"/>
    <path id="Path_2" data-name="Path 2" d="M134.794,180.292h2.353a2.782,2.782,0,0,1,2.779,2.779,1.312,1.312,0,1,0,2.625,0,5.409,5.409,0,0,0-5.268-5.4v-1.257a1.312,1.312,0,1,0-2.625,0v1.257a5.409,5.409,0,0,0-5.268,5.4v1.211a5.41,5.41,0,0,0,5.4,5.4h2.353a2.782,2.782,0,0,1,2.779,2.779v1.21a2.782,2.782,0,0,1-2.779,2.779h-2.353a2.782,2.782,0,0,1-2.779-2.779v-.113a1.312,1.312,0,1,0-2.625,0v.113a5.409,5.409,0,0,0,5.268,5.4v1.257a1.312,1.312,0,0,0,2.625,0v-1.257a5.409,5.409,0,0,0,5.268-5.4v-1.211a5.41,5.41,0,0,0-5.4-5.4h-2.353a2.782,2.782,0,0,1-2.779-2.779v-1.21a2.782,2.782,0,0,1,2.779-2.779Z" transform="translate(-107.531 -147.412)" fill="#6928cc"/>
    <path id="Path_3" data-name="Path 3" d="M64.113,130.612a20,20,0,1,0,20,20A20.023,20.023,0,0,0,64.113,130.612Zm0,37.449a17.448,17.448,0,1,1,17.448-17.448A17.468,17.468,0,0,1,64.113,168.061Z" transform="translate(-35.204 -110.22)" fill="#6928cc"/>
  </g>
</svg>
